<svg width="560" height="191" viewBox="0 0 560 191" fill="none" xmlns="http://www.w3.org/2000/svg">
<path d="M545.427 176.876C543.306 176.876 541.37 176.522 539.621 175.815C537.871 175.071 536.494 174.047 535.489 172.745C534.484 171.405 533.981 169.879 533.981 168.167C533.981 168.059 533.986 167.936 533.996 167.798C534.031 167.303 534.462 166.939 534.958 166.939H539.183C539.775 166.939 540.222 167.457 540.298 168.044C540.419 168.976 540.844 169.78 541.575 170.456C542.58 171.386 543.994 171.852 545.818 171.852C547.605 171.852 549.075 171.535 550.229 170.903C551.383 170.27 551.96 169.339 551.96 168.111C551.96 167.069 551.476 166.232 550.508 165.599C549.578 164.966 548.07 164.259 545.986 163.478C544.013 162.696 542.412 161.97 541.184 161.301C539.956 160.631 538.895 159.719 538.001 158.565C537.108 157.374 536.661 155.904 536.661 154.155C536.661 152.368 537.164 150.805 538.169 149.465C539.211 148.088 540.644 147.028 542.468 146.283C544.329 145.502 546.451 145.111 548.833 145.111C550.992 145.111 552.909 145.483 554.584 146.228C556.296 146.935 557.618 147.958 558.548 149.298C559.516 150.601 560 152.108 560 153.82C560 153.929 559.999 154.032 559.998 154.13C559.989 154.626 559.576 154.992 559.079 154.992H555.019C554.428 154.992 553.982 154.476 553.91 153.89C553.793 152.935 553.367 152.13 552.63 151.475C551.662 150.582 550.266 150.135 548.442 150.135C546.842 150.135 545.539 150.47 544.534 151.14C543.566 151.81 543.082 152.722 543.082 153.876C543.082 155.029 543.585 155.96 544.59 156.667C545.595 157.337 547.14 158.081 549.224 158.9C551.122 159.644 552.667 160.352 553.858 161.021C555.049 161.691 556.073 162.585 556.929 163.701C557.785 164.818 558.213 166.213 558.213 167.888C558.213 169.712 557.655 171.312 556.538 172.689C555.459 174.029 553.951 175.071 552.016 175.815C550.08 176.522 547.884 176.876 545.427 176.876Z" fill="#D53F8C"/>
<path d="M533.831 145.613C534.451 145.613 534.921 146.172 534.813 146.783L529.748 175.549C529.664 176.025 529.25 176.373 528.766 176.373H524.418C523.801 176.373 523.332 175.818 523.435 175.21L523.852 172.744C522.624 174.01 521.135 175.014 519.386 175.759C517.673 176.466 515.905 176.82 514.081 176.82C510.843 176.82 508.256 175.945 506.32 174.196C504.385 172.447 503.417 169.972 503.417 166.771C503.417 165.915 503.51 164.891 503.696 163.7L506.734 146.437C506.818 145.96 507.232 145.613 507.716 145.613H512C512.62 145.613 513.09 146.172 512.982 146.782L510.173 162.751C510.024 163.793 509.95 164.538 509.95 164.984C509.95 167.031 510.508 168.595 511.625 169.674C512.779 170.753 514.361 171.293 516.371 171.293C518.716 171.293 520.707 170.604 522.345 169.227C523.983 167.813 525.062 165.785 525.583 163.142L528.51 146.438C528.593 145.961 529.007 145.613 529.492 145.613H533.831Z" fill="#D53F8C"/>
<path d="M503.419 135.063C504.039 135.063 504.509 135.623 504.401 136.234L497.44 175.551C497.355 176.027 496.941 176.374 496.458 176.374H492.118C491.498 176.374 491.028 175.814 491.136 175.204L498.097 135.886C498.182 135.41 498.596 135.063 499.079 135.063H503.419Z" fill="#D53F8C"/>
<path d="M467.996 150.135C469.336 148.721 471.011 147.53 473.021 146.563C475.068 145.595 477.264 145.111 479.609 145.111C481.954 145.111 484.039 145.613 485.862 146.618C487.686 147.623 489.101 149.056 490.106 150.917C491.111 152.778 491.613 154.955 491.613 157.449C491.613 158.528 491.502 159.663 491.278 160.854C490.72 163.943 489.585 166.716 487.873 169.172C486.197 171.591 484.132 173.489 481.675 174.866C479.255 176.206 476.706 176.876 474.026 176.876C471.681 176.876 469.671 176.411 467.996 175.48C466.358 174.513 465.074 173.322 464.143 171.907L461.777 185.394C461.208 188.636 458.392 191 455.101 191C454.75 191 454.484 190.683 454.544 190.337L462.267 146.438C462.351 145.961 462.765 145.613 463.249 145.613H467.593C468.212 145.613 468.681 146.171 468.576 146.78L467.996 150.135ZM484.802 160.854C484.95 160.147 485.025 159.384 485.025 158.565C485.025 156.072 484.28 154.136 482.792 152.759C481.34 151.345 479.497 150.638 477.264 150.638C475.663 150.638 474.063 151.047 472.462 151.866C470.899 152.685 469.54 153.876 468.386 155.439C467.232 157.002 466.469 158.844 466.097 160.966C465.948 161.673 465.874 162.436 465.874 163.254C465.874 165.748 466.6 167.721 468.051 169.172C469.54 170.624 471.383 171.349 473.579 171.349C475.217 171.349 476.817 170.94 478.381 170.121C479.981 169.265 481.359 168.037 482.512 166.437C483.666 164.836 484.429 162.975 484.802 160.854Z" fill="#D53F8C"/>
<path d="M457.544 160.24C457.544 161.057 457.507 161.818 457.432 162.524C457.381 163.011 456.961 163.366 456.471 163.366H433.815C434.001 165.822 434.913 167.795 436.551 169.284C438.189 170.772 440.199 171.517 442.581 171.517C445.78 171.517 448.102 170.266 449.547 167.765C449.737 167.436 450.08 167.218 450.459 167.218H455.329C456.008 167.218 456.488 167.883 456.216 168.505C455.23 170.76 453.7 172.657 451.626 174.196C449.206 175.983 446.191 176.876 442.581 176.876C439.64 176.876 436.997 176.225 434.652 174.922C432.345 173.582 430.521 171.721 429.181 169.34C427.878 166.92 427.226 164.129 427.226 160.966C427.226 157.802 427.859 155.029 429.125 152.648C430.428 150.228 432.233 148.368 434.541 147.065C436.886 145.762 439.566 145.111 442.581 145.111C445.484 145.111 448.071 145.744 450.342 147.009C452.612 148.274 454.38 150.061 455.646 152.368C456.912 154.639 457.544 157.262 457.544 160.24ZM450.9 158.23C450.863 155.885 450.025 154.006 448.388 152.592C446.75 151.177 444.721 150.47 442.302 150.47C440.106 150.47 438.226 151.177 436.662 152.592C435.099 153.969 434.168 155.848 433.871 158.23H450.9Z" fill="#D53F8C"/>
<path d="M412.483 145.111C414.902 145.111 417.061 145.613 418.959 146.618C420.895 147.623 422.402 149.112 423.482 151.084C424.599 153.057 425.157 155.439 425.157 158.23V175.377C425.157 175.927 424.711 176.374 424.16 176.374H419.845C419.294 176.374 418.848 175.927 418.848 175.377V159.179C418.848 156.425 418.159 154.322 416.782 152.871C415.405 151.382 413.525 150.638 411.143 150.638C408.76 150.638 406.862 151.382 405.447 152.871C404.07 154.322 403.382 156.425 403.382 159.179V175.377C403.382 175.927 402.935 176.374 402.385 176.374H398.069C397.519 176.374 397.072 175.927 397.072 175.377V159.179C397.072 156.425 396.384 154.322 395.007 152.871C393.629 151.382 391.75 150.638 389.367 150.638C386.985 150.638 385.087 151.382 383.672 152.871C382.295 154.322 381.606 156.425 381.606 159.179V175.377C381.606 175.927 381.16 176.374 380.609 176.374H376.238C375.688 176.374 375.241 175.927 375.241 175.377V146.61C375.241 146.06 375.688 145.613 376.238 145.613H380.609C381.16 145.613 381.606 146.06 381.606 146.61V149.131C382.649 147.865 383.97 146.879 385.571 146.172C387.171 145.465 388.883 145.111 390.707 145.111C393.164 145.111 395.36 145.632 397.296 146.674C399.231 147.716 400.72 149.224 401.762 151.196C402.693 149.335 404.145 147.865 406.118 146.786C408.09 145.669 410.212 145.111 412.483 145.111Z" fill="#D53F8C"/>
<path d="M370.972 145.613C371.522 145.613 371.969 146.059 371.969 146.61V175.376C371.969 175.927 371.522 176.373 370.972 176.373H366.6C366.05 176.373 365.603 175.927 365.603 175.376V146.61C365.603 146.059 366.05 145.613 366.6 145.613H370.972Z" fill="#D53F8C"/>
<path d="M370.972 145.613C371.522 145.613 371.969 146.059 371.969 146.61V175.376C371.969 175.927 371.522 176.373 370.972 176.373H366.6C366.05 176.373 365.603 175.927 365.603 175.376V146.61C365.603 146.059 366.05 145.613 366.6 145.613H370.972Z" fill="#D53F8C"/>
<path d="M370.972 135.502C371.522 135.502 371.969 135.948 371.969 136.499V140.865C371.969 141.416 371.522 141.862 370.972 141.862H366.6C366.05 141.862 365.603 141.416 365.603 140.865V136.499C365.603 135.948 366.05 135.502 366.6 135.502H370.972Z" fill="#D53F8C"/>
<path d="M370.972 135.502C371.522 135.502 371.969 135.948 371.969 136.499V140.865C371.969 141.416 371.522 141.862 370.972 141.862H366.6C366.05 141.862 365.603 141.416 365.603 140.865V136.499C365.603 135.948 366.05 135.502 366.6 135.502H370.972Z" fill="#D53F8C"/>
<path d="M354.988 150.806V167.833C354.988 168.987 355.248 169.824 355.77 170.345C356.328 170.829 357.259 171.071 358.561 171.071H361.473C362.023 171.071 362.47 171.517 362.47 172.068V175.377C362.47 175.928 362.023 176.374 361.473 176.374H357.445C354.578 176.374 352.382 175.704 350.856 174.365C349.33 173.025 348.567 170.848 348.567 167.833V150.806H345.935C345.384 150.806 344.938 150.36 344.938 149.809V146.611C344.938 146.061 345.384 145.614 345.935 145.614H348.567V136.499C348.567 135.948 349.013 135.502 349.564 135.502H353.991C354.542 135.502 354.988 135.948 354.988 136.499V145.614H361.473C362.023 145.614 362.47 146.061 362.47 146.611V149.809C362.47 150.36 362.023 150.806 361.473 150.806H354.988Z" fill="#D53F8C"/>
<path d="M557.971 0C559.092 0 560 0.908266 560 2.02867V116.567C560 117.688 559.092 118.596 557.971 118.596H543.756C542.636 118.596 541.727 117.688 541.727 116.567V2.02867C541.727 0.908264 542.636 0 543.756 0H557.971Z" fill="#D53F8C"/>
<path d="M438.224 74.0418C438.224 65.1738 440.04 57.3208 443.673 50.4829C447.414 43.6449 452.436 38.3562 458.741 34.6167C465.152 30.7703 472.205 28.8471 479.899 28.8471C486.844 28.8471 492.882 30.2361 498.011 33.014C503.247 35.6851 507.415 39.0507 510.514 43.1107V32.3182C510.514 31.1978 511.422 30.2895 512.543 30.2895H526.918C528.038 30.2895 528.947 31.1978 528.947 32.3182V116.567C528.947 117.687 528.038 118.595 526.918 118.595H512.543C511.422 118.595 510.514 117.687 510.514 116.567V105.454C507.415 109.621 503.194 113.093 497.851 115.871C492.508 118.649 486.417 120.038 479.578 120.038C471.991 120.038 465.045 118.115 458.741 114.268C452.436 110.315 447.414 104.866 443.673 97.9213C440.04 90.8696 438.224 82.9098 438.224 74.0418ZM510.514 74.3623C510.514 68.2723 509.231 62.9835 506.667 58.4961C504.209 54.0087 500.95 50.5897 496.889 48.2392C492.828 45.8886 488.447 44.7133 483.745 44.7133C479.044 44.7133 474.662 45.8886 470.602 48.2392C466.541 50.4829 463.229 53.8484 460.664 58.3359C458.206 62.7164 456.977 67.9517 456.977 74.0418C456.977 80.1319 458.206 85.474 460.664 90.0683C463.229 94.6626 466.541 98.1884 470.602 100.646C474.769 102.996 479.151 104.172 483.745 104.172C488.447 104.172 492.828 102.996 496.889 100.646C500.95 98.2952 504.209 94.8762 506.667 90.3888C509.231 85.7946 510.514 80.4524 510.514 74.3623Z" fill="#D53F8C"/>
<path d="M412.291 43.1107C414.962 38.6233 418.489 35.1509 422.87 32.6935C426.852 30.4182 431.465 29.1524 436.71 28.896C437.829 28.8412 438.738 29.7554 438.738 30.8758V45.7297C438.738 46.8501 437.83 47.7584 436.709 47.7584H434.09C426.93 47.7584 421.481 49.5747 417.741 53.2074C414.107 56.84 412.291 63.1438 412.291 72.1186V116.567C412.291 117.687 411.382 118.595 410.262 118.595H396.047C394.926 118.595 394.018 117.687 394.018 116.567V32.3182C394.018 31.1978 394.926 30.2895 396.047 30.2895H410.262C411.382 30.2895 412.291 31.1978 412.291 32.3182V43.1107Z" fill="#D53F8C"/>
<path d="M364.889 45.1954V94.0762C364.889 97.3884 365.637 99.7924 367.133 101.288C368.736 102.677 371.408 103.372 375.148 103.372H384.339C385.459 103.372 386.368 104.28 386.368 105.4V116.568C386.368 117.688 385.459 118.597 384.339 118.597H371.942C363.714 118.597 357.409 116.674 353.028 112.827C348.647 108.981 346.456 102.731 346.456 94.0762V45.1954H338.066C336.946 45.1954 336.037 44.2871 336.037 43.1667V32.3194C336.037 31.199 336.946 30.2908 338.066 30.2908H346.456V2.97961C346.456 1.8592 347.364 0.950939 348.485 0.950939H362.86C363.981 0.950939 364.889 1.8592 364.889 2.97961V30.2908H384.339C385.459 30.2908 386.368 31.199 386.368 32.3194V43.1667C386.368 44.2871 385.459 45.1954 384.339 45.1954H364.889Z" fill="#D53F8C"/>
<path d="M300.211 120.038C293.266 120.038 287.014 118.809 281.458 116.352C276.008 113.787 271.68 110.369 268.474 106.095C265.695 102.296 264.04 98.1367 263.51 93.6154C263.376 92.471 264.305 91.5107 265.457 91.5107H280.397C281.45 91.5107 282.31 92.3228 282.544 93.3497C283.214 96.295 284.883 98.8339 287.549 100.966C290.861 103.424 294.975 104.652 299.891 104.652C305.02 104.652 308.974 103.691 311.752 101.768C314.637 99.7376 316.08 97.1734 316.08 94.0749C316.08 90.7628 314.477 88.3054 311.271 86.7027C308.172 85.1001 303.204 83.3372 296.365 81.414C289.739 79.5977 284.343 77.8348 280.175 76.1253C276.008 74.4158 272.375 71.7981 269.276 68.2723C266.284 64.7465 264.788 60.0988 264.788 54.3292C264.788 49.6281 266.177 45.3544 268.955 41.508C271.734 37.5548 275.687 34.4564 280.817 32.2127C286.053 29.969 292.037 28.8471 298.769 28.8471C308.814 28.8471 316.881 31.4114 322.972 36.5398C328.66 41.1483 331.918 47.3315 332.746 55.0895C332.869 56.2422 331.939 57.214 330.78 57.214H316.509C315.452 57.214 314.588 56.398 314.382 55.3615C313.766 52.2637 312.248 49.7293 309.829 47.7584C306.944 45.4078 303.043 44.2325 298.128 44.2325C293.319 44.2325 289.632 45.1407 287.068 46.957C284.503 48.7734 283.221 51.1774 283.221 54.169C283.221 56.5195 284.076 58.4961 285.786 60.0988C287.495 61.7014 289.579 62.9835 292.037 63.9451C294.495 64.7999 298.128 65.9217 302.936 67.3107C309.348 69.0202 314.584 70.7831 318.645 72.5994C322.812 74.3089 326.392 76.8731 329.384 80.2921C332.376 83.7111 333.925 88.252 334.032 93.9147C334.032 98.9363 332.643 103.424 329.865 107.377C327.086 111.33 323.133 114.429 318.003 116.672C312.981 118.916 307.05 120.038 300.211 120.038Z" fill="#D53F8C"/>
<path d="M253.355 30.2894C254.475 30.2894 255.383 31.1976 255.383 32.318V116.567C255.383 117.687 254.475 118.595 253.355 118.595H239.14C238.019 118.595 237.111 117.687 237.111 116.567V32.318C237.111 31.1976 238.019 30.2894 239.14 30.2894H253.355Z" fill="#D53F8C"/>
<path d="M188.09 102.248L212.621 31.6523C212.905 30.8363 213.674 30.2894 214.538 30.2894H229.545C230.966 30.2894 231.947 31.7127 231.441 33.0405L199.327 117.289C199.027 118.076 198.273 118.595 197.431 118.595H178.43C177.587 118.595 176.832 118.074 176.533 117.286L144.572 33.0375C144.069 31.7101 145.049 30.2894 146.469 30.2894H161.642C162.506 30.2894 163.275 30.8363 163.558 31.6522L188.09 102.248Z" fill="#D53F8C"/>
<path d="M252.484 1.13915C254.06 1.13915 255.339 2.41732 255.339 3.99403V16.4984C255.339 18.0751 254.06 19.3533 252.484 19.3533H239.966C238.389 19.3533 237.111 18.0751 237.111 16.4984V3.99403C237.111 2.41732 238.389 1.13915 239.966 1.13915H252.484Z" fill="#D53F8C"/>
<path d="M252.484 1.13915C254.06 1.13915 255.339 2.41732 255.339 3.99403V16.4984C255.339 18.0751 254.06 19.3533 252.484 19.3533H239.966C238.389 19.3533 237.111 18.0751 237.111 16.4984V3.99403C237.111 2.41732 238.389 1.13915 239.966 1.13915H252.484Z" fill="#D53F8C"/>
<path d="M34.8976 30.1315C38.5668 29.2423 42.3211 28.8144 46.0736 28.8491C46.3508 28.8516 46.4164 29.2342 46.1593 29.3379C41.6651 31.1501 37.454 33.6278 33.6721 36.6989C31.2237 38.6872 28.9815 40.9022 26.9737 43.3096C26.9555 43.3315 26.9337 43.3501 26.9094 43.3648C22.8057 45.8376 19.2058 49.1106 16.3397 53.0194C11.7726 59.2483 9.30552 66.7684 9.29479 74.4918C9.30733 82.2203 11.7799 89.7445 16.3546 95.9741C19.2144 99.8685 22.8032 103.13 26.8925 105.597C26.9169 105.612 26.9386 105.63 26.9568 105.652C28.9692 108.068 31.2165 110.291 33.6721 112.285C37.4542 115.356 41.6658 117.834 46.1603 119.646C46.4174 119.749 46.3518 120.132 46.0746 120.135C42.3217 120.17 38.5671 119.742 34.8976 118.853C28.2993 117.254 22.1408 114.203 16.8707 109.923C11.6006 105.643 7.3519 100.242 4.4334 94.1128C1.51489 87.9835 0 81.2803 0 74.4918C3.07627e-05 67.7034 1.51492 61 4.4334 54.8708C7.3519 48.7417 11.6006 43.3401 16.8707 39.0604C22.1408 34.7808 28.2994 31.7306 34.8976 30.1315Z" fill="#EA9FC5"/>
<path d="M83.1036 28.8471C74.0745 28.8471 65.2483 31.5242 57.7409 36.5397C50.2335 41.5552 44.3822 48.684 40.9269 57.0246C37.4717 65.3651 36.5676 74.5428 38.3291 83.3971C40.0906 92.2513 44.4385 100.385 50.823 106.768C57.2075 113.152 65.3418 117.499 74.1974 119.26C83.0529 121.021 92.232 120.117 100.574 116.663C108.915 113.208 116.045 107.357 121.062 99.8512C126.078 92.3449 128.755 83.5199 128.755 74.4922C128.741 62.3907 123.927 50.7888 115.369 42.2318C106.81 33.6747 95.2068 28.8612 83.1036 28.8471ZM119.439 74.4922C119.44 81.6789 117.309 88.7044 113.316 94.6804C109.324 100.656 103.648 105.314 97.0076 108.065C90.3672 110.815 83.0601 111.535 76.0104 110.134C68.9607 108.732 62.4851 105.271 57.4026 100.189C52.3201 95.1076 48.859 88.633 47.457 81.5843C46.0549 74.5357 46.775 67.2296 49.5261 60.5901C52.2771 53.9507 56.9356 48.276 62.9124 44.2839C68.8892 40.2918 75.9158 38.1615 83.1036 38.1624C92.7367 38.1739 101.972 42.0052 108.784 48.8159C115.595 55.6265 119.427 64.8604 119.439 74.4922Z" fill="#D53F8C"/>
<path d="M53.6179 30.1319C58.1516 29.0333 62.8147 28.6383 67.4444 28.9505C67.72 28.9691 67.7647 29.3528 67.5036 29.4432C63.6779 30.7675 60.016 32.5801 56.6138 34.853C53.5805 36.8795 50.8072 39.2375 48.3363 41.8701C48.3155 41.8924 48.2907 41.9107 48.2634 41.9242C43.0619 44.4962 38.5256 48.288 35.063 53.0109C30.4949 59.2419 28.032 66.7666 28.032 74.4922C28.032 82.2179 30.4949 89.7426 35.063 95.9736C38.5249 100.696 43.0602 104.486 48.2604 107.058C48.2878 107.072 48.3125 107.09 48.3334 107.112C48.6789 107.481 49.0296 107.845 49.3876 108.203C54.5088 113.324 60.7088 117.189 67.4996 119.54C67.7606 119.631 67.7159 120.014 67.4403 120.033C62.8119 120.345 58.1503 119.951 53.6179 118.853C47.0197 117.253 40.8612 114.203 35.5911 109.924C30.3208 105.644 26.0713 100.243 23.1528 94.1133C20.2343 87.984 18.7204 81.2807 18.7204 74.4922C18.7204 67.7038 20.2343 61.0005 23.1528 54.8712C26.0713 48.7419 30.3209 43.3406 35.5911 39.0609C40.8612 34.7812 47.0197 31.731 53.6179 30.1319Z" fill="#D53F8C"/>
<path d="M76.1847 40.8955C76.3425 40.863 76.5062 40.9088 76.6246 41.018C81.0254 45.0793 84.5875 49.9717 87.0998 55.4199C89.8573 61.4 91.2851 67.907 91.2855 74.4922C91.2826 81.0748 89.8533 87.5791 87.0958 93.5565C84.5446 99.0866 80.9117 104.043 76.4182 108.14C76.415 108.143 76.4104 108.144 76.4061 108.144C72.9551 107.457 69.6504 106.248 66.5986 104.574C66.4341 104.484 66.4237 104.252 66.577 104.144C70.959 101.059 74.6131 97.0347 77.2641 92.352C80.3507 86.8996 81.9738 80.7406 81.9739 74.4753C81.9739 68.21 80.3507 62.0512 77.2641 56.5987C74.6199 51.9278 70.9785 47.9114 66.6114 44.8286C66.4582 44.7204 66.4689 44.489 66.6335 44.399C69.6315 42.7594 72.8517 41.5811 76.1847 40.8955Z" fill="#EA9FC5"/>
<path d="M94.0567 109.142C93.6066 109.284 93.1534 109.416 92.6992 109.54C93.1535 109.416 93.6055 109.282 94.0554 109.14L94.0567 109.142Z" fill="#D53F8C"/>
<path d="M83.1013 40.191C88.2605 40.1972 93.2983 41.3657 97.8668 43.5479C97.9244 43.5754 97.9762 43.6137 98.0194 43.6607C101.218 47.1388 103.866 51.1011 105.855 55.412C108.615 61.3941 110.044 67.9042 110.044 74.4922C110.045 81.0803 108.616 87.5902 105.856 93.5724C103.858 97.9025 101.196 101.88 97.9771 105.369C97.9337 105.416 97.8817 105.454 97.8239 105.482C97.2999 105.731 96.769 105.968 96.2311 106.191C90.6105 108.519 84.4841 109.305 78.4804 108.489C78.2245 108.454 78.1849 108.104 78.4231 108.004C84.2329 105.573 89.3401 101.664 93.2114 96.6263C98.0893 90.2784 100.734 82.4973 100.734 74.4922C100.734 66.4868 98.0895 58.7051 93.2114 52.3571C89.344 47.3243 84.2433 43.4178 78.4408 40.9869C78.2026 40.8871 78.2423 40.5363 78.4982 40.5016C80.0181 40.2958 81.5557 40.1909 83.1013 40.191Z" fill="#D53F8C"/>
</svg>
